# xmcd
#
# Track frame offsets: 
#        150
#        14348
#        36530
#        49945
#        61758
#        81310
#        97788
#        111220
#        131850
#        148890
#        176527
#        196650
#        220308
#
# Disc length: 3218 seconds
#
# Revision: 0
# Processed by: cddbd v1.5.2PL0 Copyright (c) Steve Scherf et al.
# Submitted via: ExactAudioCopy v0.95b3
#
DISCID=bb0c900d
DTITLE=Sonny Boy Terry - Breakfast Dance
DYEAR=2003
DGENRE=Blues
TTITLE0=I Live Where The Action Is
TTITLE1=I'll Be Your Fool
TTITLE2=Pressure Cookin'
TTITLE3=Jangle Jangle (Down Mexico Way)
TTITLE4=Business Man
TTITLE5=Moody Blues
TTITLE6=Take Your time
TTITLE7=Hey Zydeco
TTITLE8=Railroad Tracks
TTITLE9=Laundromat Blues
TTITLE10=Holman and Dowling
TTITLE11=Screwdriver
TTITLE12=Pack Fair and Square
EXTD=
EXTT0=
EXTT1=
EXTT2=
EXTT3=
EXTT4=
EXTT5=
EXTT6=
EXTT7=
EXTT8=
EXTT9=
EXTT10=
EXTT11=
EXTT12=
PLAYORDER=
